#!OML:ASF F:\VICON\USERDATA\INSTALL\rory3\rory3.ASF
:FULLY-SPECIFIED
:DEGREES
707
root 4.27212 15.8184 1.73168 22.5284 -4.47392 -3.56085
lowerback 10.1606 -0.535275 2.6928
upperback 8.96025 -0.5359 -0.898853
thorax 3.6366 -0.112637 -2.40937
lowerneck -17.265 -0.733233 -0.723203
upperneck 37.9949 0.1137 -2.50456
head 16.6043 -0.434733 -0.963905
rclavicle 1.43125e-014 -1.70955e-014
rhumerus -69.3931 64.3552 -68.3728
rradius 53.9241
rwrist -18.4855
rhand -6.62531 -41.1348
rfingers 7.12502
rthumb 19.2312 -70.2039
lclavicle 1.43125e-014 -1.70955e-014
lhumerus -62.4952 -77.6292 56.9624
lradius 56.4246
lwrist 63.036
lhand -28.2286 -26.6886
lfingers 7.12502
lthumb -1.60672 3.28514
rfemur -75.1995 -1.63044 21.3095
rtibia 36.1936
rfoot 36.7525 -1.89129
rtoes 2.32344
lfemur -58.4476 1.09312 -26.7541
ltibia 61.0058
lfoot -23.7836 5.86676
ltoes 10.1319
708
root 4.27277 15.8249 1.73417 22.4825 -4.29812 -3.7378
lowerback 10.1959 -0.571003 2.96324
upperback 9.01346 -0.565962 -0.825889
thorax 3.67301 -0.114934 -2.48328
lowerneck -17.3659 -0.723051 -0.702221
upperneck 37.9229 0.105771 -2.4633
head 16.591 -0.42889 -0.950184
rclavicle -1.11319e-014 7.95139e-016
rhumerus -68.9336 64.2997 -67.8108
rradius 53.9621
rwrist -18.2998
rhand -6.1679 -40.8841
rfingers 7.12502
rthumb 19.6709 -69.9089
lclavicle -1.11319e-014 7.95139e-016
lhumerus -61.6193 -77.5842 55.9734
lradius 56.4993
lwrist 63.0311
lhand -29.1172 -27.2178
lfingers 7.12502
lthumb -2.46494 2.74775
rfemur -75.0568 -1.7091 21.5467
rtibia 36.152
rfoot 36.6519 -2.05172
rtoes 2.68927
lfemur -58.3484 1.01786 -26.5001
ltibia 60.9547
lfoot -23.7095 5.91579
ltoes 10.1725
709
root 4.27276 15.8298 1.73808 22.4668 -4.2209 -3.71742
lowerback 10.0741 -0.566295 3.01979
upperback 9.12198 -0.561506 -0.805253
thorax 3.85634 -0.105984 -2.49537
lowerneck -17.3772 -0.6965 -0.483589
upperneck 37.6669 0.172757 -2.7384
head 16.4608 -0.406634 -1.09231
rclavicle 1.11319e-014 -6.36111e-015
rhumerus -68.49 64.2522 -67.1658
rradius 54.1838
rwrist -18.3356
rhand -5.84487 -40.9072
rfingers 7.12502
rthumb 19.9815 -69.8999
lclavicle 1.11319e-014 -6.36111e-015
lhumerus -60.0396 -77.6171 54.3671
lradius 56.5449
lwrist 63.2352
lhand -29.1456 -26.8206
lfingers 7.12502
lthumb -2.49231 3.14464
rfemur -75.0159 -1.80604 21.5724
rtibia 36.1501
rfoot 36.5591 -1.79713
rtoes 2.31035
lfemur -58.2693 0.923859 -26.4755
ltibia 60.87
lfoot -23.6674 5.83042
ltoes 10.529
710
root 4.2735 15.8362 1.74404 22.4538 -4.18091 -3.5748
lowerback 9.92306 -0.561675 2.96903
upperback 9.18545 -0.563122 -0.830471
thorax 4.00667 -0.105122 -2.49452
lowerneck -17.4199 -0.698727 -0.28713
upperneck 37.6418 0.211148 -3.0187
head 16.4595 -0.401347 -1.24325
rclavicle 7.95139e-015 -6.36111e-015
rhumerus -68.2944 64.2575 -66.767
rradius 54.4109
rwrist -18.2727
rhand -5.35974 -40.6598
rfingers 7.12502
rthumb 20.4477 -69.6031
lclavicle 7.95139e-015 -6.36111e-015
lhumerus -59.5987 -77.8933 53.7994
lradius 56.7135
lwrist 63.555
lhand -29.0912 -26.7144
lfingers 7.12502
lthumb -2.43979 3.25138
rfemur -75.011 -1.95338 21.4849
rtibia 36.191
rfoot 36.5266 -1.76794
rtoes 2.47544
lfemur -58.1626 0.83566 -26.6138
ltibia 60.7587
lfoot -23.6915 5.74804
ltoes 10.809
711
root 4.27287 15.8411 1.7462 22.3868 -4.12424 -3.42105
lowerback 10.0201 -0.584023 2.87451
upperback 9.16753 -0.594165 -0.856098
thorax 3.93205 -0.125977 -2.46532
lowerneck -17.552 -0.686638 -0.17737
upperneck 37.8792 0.264444 -3.18829
head 16.6188 -0.388883 -1.33542
rclavicle -5.56597e-015 -2.78299e-015
rhumerus -68.0993 64.2864 -66.4205
rradius 54.497
rwrist -17.8579
rhand -4.89878 -40.4258
rfingers 7.12502
rthumb 20.8907 -69.3209
lclavicle -5.56597e-015 -2.78299e-015
lhumerus -59.9915 -78.1698 53.9874
lradius 56.9553
lwrist 63.7483
lhand -29.5627 -27.5553
lfingers 7.12502
lthumb -2.89519 2.40484
rfemur -74.9659 -2.0382 21.2807
rtibia 36.2566
rfoot 36.4501 -2.74117
rtoes 4.35106
lfemur -58.0031 0.759402 -26.7632
ltibia 60.6536
lfoot -23.7152 5.77286
ltoes 10.702
712
root 4.27228 15.8407 1.74915 22.3611 -4.1307 -3.30474
lowerback 10.0484 -0.592203 2.77545
upperback 9.16631 -0.609529 -0.883232
thorax 3.91401 -0.13818 -2.43674
lowerneck -17.7015 -0.683752 -0.221973
upperneck 38.1338 0.266932 -3.12391
head 16.7914 -0.386993 -1.30691
rclavicle 9.54166e-015 3.18055e-015
rhumerus -68.3497 64.6278 -66.5066
rradius 54.7323
rwrist -18.1275
rhand -5.33545 -40.7327
rfingers 7.12502
rthumb 20.4711 -69.6735
lclavicle 9.54166e-015 3.18055e-015
lhumerus -59.091 -78.0927 52.8976
lradius 57.1329
lwrist 63.6364
lhand -29.3243 -27.3938
lfingers 7.12502
lthumb -2.66491 2.56933
rfemur -74.98 -2.05298 21.0983
rtibia 36.3185
rfoot 36.4607 -2.26833
rtoes 3.30125
lfemur -57.9106 0.709945 -26.8822
ltibia 60.5925
lfoot -23.7285 5.83077
ltoes 10.5043
713
root 4.27459 15.8415 1.75629 22.3769 -4.18322 -3.29448
lowerback 9.95114 -0.592283 2.78889
upperback 9.18103 -0.611263 -0.911109
thorax 3.98274 -0.136182 -2.47414
lowerneck -17.7471 -0.720794 -0.48438
upperneck 38.3002 0.149989 -2.7238
head 16.8885 -0.417652 -1.10832
rclavicle -1.98785e-015 3.18055e-015
rhumerus -69.0412 65.2472 -67.0898
rradius 55.0738
rwrist -18.9955
rhand -6.35448 -41.0535
rfingers 7.12502
rthumb 19.4916 -70.0965
lclavicle -1.98785e-015 3.18055e-015
lhumerus -58.4224 -77.9778 51.9587
lradius 57.3208
lwrist 63.4678
lhand -28.5975 -26.631
lfingers 7.12502
lthumb -1.96299 3.33971
rfemur -75.0148 -2.05967 21.1088
rtibia 36.359
rfoot 36.4655 -1.92271
rtoes 2.63953
lfemur -57.8566 0.707184 -26.909
ltibia 60.5603
lfoot -23.7575 5.87979
ltoes 10.497
714
root 4.27427 15.8415 1.76202 22.406 -4.27926 -3.30795
lowerback 9.90875 -0.570302 2.76867
upperback 9.17206 -0.584599 -0.933304
thorax 3.99791 -0.12324 -2.48793
lowerneck -17.7304 -0.742782 -0.609325
upperneck 38.3094 0.0813995 -2.52344
head 16.8876 -0.435766 -1.00958
rclavicle -3.97569e-016 -6.36111e-015
rhumerus -69.0059 65.4944 -67.0331
rradius 55.2057
rwrist -19.246
rhand -6.44163 -40.9053
rfingers 7.12502
rthumb 19.4078 -69.9567
lclavicle -3.97569e-016 -6.36111e-015
lhumerus -58.5333 -77.9338 51.8159
lradius 57.4277
lwrist 63.1858
lhand -28.3647 -26.5023
lfingers 7.12502
lthumb -1.73816 3.4704
rfemur -75.0644 -1.9401 21.0517
rtibia 36.3932
rfoot 36.4849 -1.82344
rtoes 2.14383
lfemur -57.8465 0.764256 -26.914
ltibia 60.5319
lfoot -23.792 5.9293
ltoes 10.5693
715
root 4.2706 15.8406 1.76646 22.4342 -4.46306 -3.20218
lowerback 9.85923 -0.499017 2.56883
upperback 9.16586 -0.503892 -0.975433
thorax 4.02307 -0.0921327 -2.42504
lowerneck -17.7049 -0.722369 -0.479254
upperneck 38.2231 0.137679 -2.70918
head 16.8361 -0.41938 -1.10278
rclavicle -7.15625e-015 -1.98785e-015
rhumerus -68.5615 65.4361 -66.4593
rradius 55.3405
rwrist -19.1552
rhand -5.78324 -40.8247
rfingers 7.12502
rthumb 20.0407 -69.8112
lclavicle -7.15625e-015 -1.98785e-015
lhumerus -58.3781 -78.3907 51.2791
lradius 57.7521
lwrist 63.3526
lhand -28.344 -26.6975
lfingers 7.12502
lthumb -1.71814 3.27538
rfemur -75.1429 -1.74321 20.7891
rtibia 36.4388
rfoot 36.5071 -1.77743
rtoes 1.73091
lfemur -57.8457 0.837975 -27.05
ltibia 60.4758
lfoot -23.8092 5.98383
ltoes 10.5465
716
root 4.27111 15.8432 1.772 22.4436 -4.62437 -2.97631
lowerback 9.79378 -0.45035 2.32934
upperback 9.13488 -0.454024 -1.05431
thorax 4.02806 -0.0776725 -2.37608
lowerneck -17.6351 -0.711051 -0.435173
upperneck 38.1751 0.158674 -2.76329
head 16.7932 -0.41141 -1.12892
rclavicle -5.96354e-015 6.75868e-015
rhumerus -68.7637 65.5564 -66.4387
rradius 55.604
rwrist -19.2483
rhand -5.24053 -40.9994
rfingers 7.12502
rthumb 20.5623 -69.9304
lclavicle -5.96354e-015 6.75868e-015
lhumerus -58.1858 -78.4785 51.0442
lradius 57.6749
lwrist 63.3318
lhand -28.5883 -27.5605
lfingers 7.12502
lthumb -1.95413 2.41029
rfemur -75.216 -1.75507 20.5546
rtibia 36.4966
rfoot 36.5619 -1.38657
rtoes 1.33518
lfemur -57.7752 0.81262 -27.3201
ltibia 60.3877
lfoot -23.8101 6.07088
ltoes 10.4962
717
root 4.27404 15.8453 1.77757 22.479 -4.69364 -2.78959
lowerback 9.69162 -0.445491 2.18238
upperback 9.1037 -0.456775 -1.11295
thorax 4.05005 -0.0847975 -2.35488
lowerneck -17.6193 -0.722223 -0.53612
upperneck 38.2147 0.119895 -2.61586
head 16.8095 -0.421322 -1.0533
rclavicle -1.07344e-014 3.97569e-016
rhumerus -69.2233 65.7882 -66.7505
rradius 55.7958
rwrist -19.2638
rhand -5.16488 -41.0054
rfingers 7.12502
rthumb 20.635 -69.9285
lclavicle -1.07344e-014 3.97569e-016
lhumerus -58.9467 -78.8186 51.6214
lradius 57.7818
lwrist 63.6098
lhand -28.6316 -27.8689
lfingers 7.12502
lthumb -1.99591 2.10151
rfemur -75.3185 -1.87026 20.4355
rtibia 36.5647
rfoot 36.6142 -1.00813
rtoes 1.12293
lfemur -57.7278 0.704106 -27.5277
ltibia 60.3168
lfoot -23.8157 6.20021
ltoes 10.3446
718
root 4.27253 15.8426 1.78275 22.5519 -4.75979 -2.73724
lowerback 9.56618 -0.425544 2.09565
upperback 9.09414 -0.437643 -1.12755
thorax 4.10955 -0.0787121 -2.32318
lowerneck -17.6528 -0.711561 -0.511459
upperneck 38.208 0.139026 -2.64534
head 16.8147 -0.414263 -1.06742
rclavicle 4.37326e-015 1.66979e-014
rhumerus -69.5836 66.0579 -66.9842
rradius 56.0047
rwrist -19.3488
rhand -5.96832 -40.9776
rfingers 7.12502
rthumb 19.8628 -69.9826
lclavicle 4.37326e-015 1.66979e-014
lhumerus -59.1264 -79.1465 51.5611
lradius 57.9489
lwrist 63.8718
lhand -28.1404 -27.0097
lfingers 7.12502
lthumb -1.52148 2.96461
rfemur -75.4541 -1.78972 20.3103
rtibia 36.6147
rfoot 36.6547 -1.01499
rtoes 1.34238
lfemur -57.7843 0.656573 -27.5694
ltibia 60.3013
lfoot -23.7935 6.28268
ltoes 10.2973
719
root 4.26861 15.8375 1.78791 22.5831 -4.88686 -2.70507
lowerback 9.51663 -0.376623 1.97255
upperback 9.08783 -0.38121 -1.14439
thorax 4.13292 -0.0565445 -2.27513
lowerneck -17.7022 -0.675274 -0.343898
upperneck 38.1875 0.229812 -2.88671
head 16.8186 -0.387 -1.18782
rclavicle 1.19271e-014 -2.38542e-015
rhumerus -70.0364 66.4344 -67.2218
rradius 56.3578
rwrist -19.7438
rhand -6.85287 -40.8171
rfingers 7.12502
rthumb 19.0123 -69.9079
lclavicle 1.19271e-014 -2.38542e-015
lhumerus -58.0916 -79.2595 50.3292
lradius 57.9663
lwrist 63.9584
lhand -27.755 -26.1568
lfingers 7.12502
lthumb -1.14927 3.81986
rfemur -75.523 -1.60143 20.1511
rtibia 36.6349
rfoot 36.6746 -1.11122
rtoes 1.33729
lfemur -57.8317 0.692972 -27.6014
ltibia 60.3269
lfoot -23.7944 6.26576
ltoes 10.4363
